<?xml version="1.0" encoding="UTF-8" standalone="no"?>
<!DOCTYPE svg PUBLIC "-//W3C//DTD SVG 1.1//EN"
 "http://www.w3.org/Graphics/SVG/1.1/DTD/svg11.dtd">
<!-- Generated by graphviz version 10.0.1 (20240210.2158)
 -->
<!-- Title: G Pages: 1 -->
<svg width="154pt" height="487pt"
 viewBox="0.00 0.00 154.00 486.50" xmlns="http://www.w3.org/2000/svg" xmlns:xlink="http://www.w3.org/1999/xlink">
<g id="graph0" class="graph" transform="scale(1 1) rotate(0) translate(4 482.5)">
<title>G</title>
<polygon fill="white" stroke="none" points="-4,4 -4,-482.5 150,-482.5 150,4 -4,4"/>
<!-- 0 -->
<g id="node1" class="node">
<title>0</title>
<ellipse fill="none" stroke="black" cx="114" cy="-460.5" rx="27" ry="18"/>
<text text-anchor="middle" x="114" y="-455.45" font-family="Times,serif" font-size="14.00">0</text>
</g>
<!-- 5 -->
<g id="node2" class="node">
<title>5</title>
<ellipse fill="none" stroke="black" cx="27" cy="-372" rx="27" ry="18"/>
<text text-anchor="middle" x="27" y="-366.95" font-family="Times,serif" font-size="14.00">5</text>
</g>
<!-- 0&#45;&gt;5 -->
<g id="edge1" class="edge">
<title>0&#45;&gt;5</title>
<path fill="none" stroke="black" d="M99.63,-445.22C85.99,-431.65 65.27,-411.05 49.44,-395.31"/>
<polygon fill="black" stroke="black" points="52.31,-393.23 42.75,-388.66 47.38,-398.19 52.31,-393.23"/>
<text text-anchor="middle" x="81" y="-411.2" font-family="Times,serif" font-size="14.00">a</text>
</g>
<!-- 4 -->
<g id="node3" class="node">
<title>4</title>
<ellipse fill="none" stroke="black" cx="69" cy="-283.5" rx="27" ry="18"/>
<text text-anchor="middle" x="69" y="-278.45" font-family="Times,serif" font-size="14.00">4</text>
</g>
<!-- 0&#45;&gt;4 -->
<g id="edge2" class="edge">
<title>0&#45;&gt;4</title>
<path fill="none" stroke="black" d="M109.62,-442.32C104.29,-421.44 95.01,-385.13 87,-354 83.48,-340.32 79.55,-325.14 76.26,-312.46"/>
<polygon fill="black" stroke="black" points="79.73,-311.9 73.83,-303.1 72.96,-313.66 79.73,-311.9"/>
<text text-anchor="middle" x="99.38" y="-366.95" font-family="Times,serif" font-size="14.00">b</text>
</g>
<!-- 3 -->
<g id="node4" class="node">
<title>3</title>
<ellipse fill="none" stroke="black" cx="69" cy="-195" rx="27" ry="18"/>
<text text-anchor="middle" x="69" y="-189.95" font-family="Times,serif" font-size="14.00">3</text>
</g>
<!-- 0&#45;&gt;3 -->
<g id="edge3" class="edge">
<title>0&#45;&gt;3</title>
<path fill="none" stroke="black" d="M120.16,-442.48C131.67,-407.86 153.29,-327.33 130,-265.5 122.85,-246.52 107.9,-229.35 94.6,-216.82"/>
<polygon fill="black" stroke="black" points="97.1,-214.36 87.31,-210.3 92.43,-219.58 97.1,-214.36"/>
<text text-anchor="middle" x="143" y="-322.7" font-family="Times,serif" font-size="14.00">a</text>
</g>
<!-- 5&#45;&gt;5 -->
<g id="edge9" class="edge">
<title>5&#45;&gt;5</title>
<path fill="none" stroke="black" d="M51.53,-380.17C62.51,-380.95 72,-378.22 72,-372 72,-368.11 68.29,-365.59 62.83,-364.43"/>
<polygon fill="black" stroke="black" points="63.22,-360.95 53.04,-363.91 62.84,-367.94 63.22,-360.95"/>
<text text-anchor="middle" x="75" y="-366.95" font-family="Times,serif" font-size="14.00">a</text>
</g>
<!-- 5&#45;&gt;4 -->
<g id="edge10" class="edge">
<title>5&#45;&gt;4</title>
<path fill="none" stroke="black" d="M33.29,-354.03C37.24,-343.85 42.63,-330.75 48.25,-319.5 49.73,-316.54 51.36,-313.49 53.04,-310.48"/>
<polygon fill="black" stroke="black" points="56.02,-312.32 58.03,-301.92 49.97,-308.8 56.02,-312.32"/>
<text text-anchor="middle" x="51.38" y="-322.7" font-family="Times,serif" font-size="14.00">b</text>
</g>
<!-- 5&#45;&gt;3 -->
<g id="edge11" class="edge">
<title>5&#45;&gt;3</title>
<path fill="none" stroke="black" d="M24.22,-353.81C21.42,-332.61 18.59,-295.67 27,-265.5 31.52,-249.27 40.98,-233.04 49.78,-220.35"/>
<polygon fill="black" stroke="black" points="52.34,-222.77 55.39,-212.63 46.68,-218.66 52.34,-222.77"/>
<text text-anchor="middle" x="30" y="-278.45" font-family="Times,serif" font-size="14.00">a</text>
</g>
<!-- 4&#45;&gt;5 -->
<g id="edge6" class="edge">
<title>4&#45;&gt;5</title>
<path fill="none" stroke="black" d="M65.19,-301.76C62.55,-312.04 58.51,-325.15 53,-336 51.16,-339.62 48.95,-343.26 46.61,-346.75"/>
<polygon fill="black" stroke="black" points="43.78,-344.69 40.73,-354.83 49.44,-348.8 43.78,-344.69"/>
<text text-anchor="middle" x="62" y="-322.7" font-family="Times,serif" font-size="14.00">a</text>
</g>
<!-- 4&#45;&gt;4 -->
<g id="edge7" class="edge">
<title>4&#45;&gt;4</title>
<path fill="none" stroke="black" d="M93.53,-291.67C104.51,-292.45 114,-289.72 114,-283.5 114,-279.61 110.29,-277.09 104.83,-275.93"/>
<polygon fill="black" stroke="black" points="105.22,-272.45 95.04,-275.41 104.84,-279.44 105.22,-272.45"/>
<text text-anchor="middle" x="117.38" y="-278.45" font-family="Times,serif" font-size="14.00">b</text>
</g>
<!-- 4&#45;&gt;3 -->
<g id="edge8" class="edge">
<title>4&#45;&gt;3</title>
<path fill="none" stroke="black" d="M69,-265.41C69,-253.76 69,-238.05 69,-224.52"/>
<polygon fill="black" stroke="black" points="72.5,-224.86 69,-214.86 65.5,-224.86 72.5,-224.86"/>
<text text-anchor="middle" x="72" y="-234.2" font-family="Times,serif" font-size="14.00">a</text>
</g>
<!-- 2 -->
<g id="node5" class="node">
<title>2</title>
<ellipse fill="none" stroke="black" cx="69" cy="-106.5" rx="27" ry="18"/>
<text text-anchor="middle" x="69" y="-101.45" font-family="Times,serif" font-size="14.00">2</text>
</g>
<!-- 3&#45;&gt;2 -->
<g id="edge5" class="edge">
<title>3&#45;&gt;2</title>
<path fill="none" stroke="black" d="M69,-176.91C69,-165.26 69,-149.55 69,-136.02"/>
<polygon fill="black" stroke="black" points="72.5,-136.36 69,-126.36 65.5,-136.36 72.5,-136.36"/>
<text text-anchor="middle" x="72.38" y="-145.7" font-family="Times,serif" font-size="14.00">b</text>
</g>
<!-- 1 -->
<g id="node6" class="node">
<title>1</title>
<ellipse fill="none" stroke="black" cx="69" cy="-18" rx="27" ry="18"/>
<text text-anchor="middle" x="69" y="-12.95" font-family="Times,serif" font-size="14.00">1</text>
</g>
<!-- 2&#45;&gt;1 -->
<g id="edge4" class="edge">
<title>2&#45;&gt;1</title>
<path fill="none" stroke="black" d="M69,-88.41C69,-76.76 69,-61.05 69,-47.52"/>
<polygon fill="black" stroke="black" points="72.5,-47.86 69,-37.86 65.5,-47.86 72.5,-47.86"/>
<text text-anchor="middle" x="72.38" y="-57.2" font-family="Times,serif" font-size="14.00">b</text>
</g>
</g>
</svg>
