<?xml version="1.0" encoding="UTF-8" standalone="no"?>
<!DOCTYPE svg PUBLIC "-//W3C//DTD SVG 1.1//EN"
 "http://www.w3.org/Graphics/SVG/1.1/DTD/svg11.dtd">
<!-- Generated by graphviz version 10.0.1 (20240210.2158)
 -->
<!-- Title: G Pages: 1 -->
<svg width="216pt" height="2168pt"
 viewBox="0.00 0.00 216.25 2168.00" xmlns="http://www.w3.org/2000/svg" xmlns:xlink="http://www.w3.org/1999/xlink">
<g id="graph0" class="graph" transform="scale(1 1) rotate(0) translate(4 2164)">
<title>G</title>
<polygon fill="white" stroke="none" points="-4,4 -4,-2164 212.25,-2164 212.25,4 -4,4"/>
<!-- 0 -->
<g id="node1" class="node">
<title>0</title>
<ellipse fill="none" stroke="black" cx="172" cy="-2142" rx="27" ry="18"/>
<text text-anchor="middle" x="172" y="-2136.95" font-family="Times,serif" font-size="14.00">0</text>
</g>
<!-- 15 -->
<g id="node2" class="node">
<title>15</title>
<ellipse fill="none" stroke="black" cx="172" cy="-2053.5" rx="27" ry="18"/>
<text text-anchor="middle" x="172" y="-2048.45" font-family="Times,serif" font-size="14.00">15</text>
</g>
<!-- 0&#45;&gt;15 -->
<g id="edge1" class="edge">
<title>0&#45;&gt;15</title>
<path fill="none" stroke="black" d="M172,-2123.91C172,-2112.26 172,-2096.55 172,-2083.02"/>
<polygon fill="black" stroke="black" points="175.5,-2083.36 172,-2073.36 168.5,-2083.36 175.5,-2083.36"/>
<text text-anchor="middle" x="176.12" y="-2092.7" font-family="Times,serif" font-size="14.00">E</text>
</g>
<!-- 16 -->
<g id="node17" class="node">
<title>16</title>
<ellipse fill="none" stroke="black" cx="145" cy="-1965" rx="27" ry="18"/>
<text text-anchor="middle" x="145" y="-1959.95" font-family="Times,serif" font-size="14.00">16</text>
</g>
<!-- 15&#45;&gt;16 -->
<g id="edge15" class="edge">
<title>15&#45;&gt;16</title>
<path fill="none" stroke="black" d="M166.67,-2035.41C162.97,-2023.56 157.96,-2007.52 153.69,-1993.84"/>
<polygon fill="black" stroke="black" points="157.09,-1993 150.77,-1984.5 150.41,-1995.09 157.09,-1993"/>
<text text-anchor="middle" x="164.12" y="-2004.2" font-family="Times,serif" font-size="14.00">E</text>
</g>
<!-- 18 -->
<g id="node18" class="node">
<title>18</title>
<ellipse fill="none" stroke="black" cx="172" cy="-1257" rx="27" ry="18"/>
<text text-anchor="middle" x="172" y="-1251.95" font-family="Times,serif" font-size="14.00">18</text>
</g>
<!-- 15&#45;&gt;18 -->
<g id="edge16" class="edge">
<title>15&#45;&gt;18</title>
<path fill="none" stroke="black" d="M180.71,-2036.1C188.93,-2019.07 200,-1991.41 200,-1966 200,-1966 200,-1966 200,-1344.5 200,-1323.65 192.55,-1301.29 185.33,-1284.53"/>
<polygon fill="black" stroke="black" points="188.67,-1283.42 181.33,-1275.77 182.3,-1286.32 188.67,-1283.42"/>
<text text-anchor="middle" x="204.12" y="-1650.2" font-family="Times,serif" font-size="14.00">E</text>
</g>
<!-- 1 -->
<g id="node3" class="node">
<title>1</title>
<ellipse fill="none" stroke="black" cx="172" cy="-1168.5" rx="27" ry="18"/>
<text text-anchor="middle" x="172" y="-1163.45" font-family="Times,serif" font-size="14.00">1</text>
</g>
<!-- 3 -->
<g id="node4" class="node">
<title>3</title>
<ellipse fill="none" stroke="black" cx="172" cy="-1080" rx="27" ry="18"/>
<text text-anchor="middle" x="172" y="-1074.95" font-family="Times,serif" font-size="14.00">3</text>
</g>
<!-- 1&#45;&gt;3 -->
<g id="edge2" class="edge">
<title>1&#45;&gt;3</title>
<path fill="none" stroke="black" d="M172,-1150.41C172,-1138.76 172,-1123.05 172,-1109.52"/>
<polygon fill="black" stroke="black" points="175.5,-1109.86 172,-1099.86 168.5,-1109.86 175.5,-1109.86"/>
<text text-anchor="middle" x="176.12" y="-1119.2" font-family="Times,serif" font-size="14.00">E</text>
</g>
<!-- 13 -->
<g id="node5" class="node">
<title>13</title>
<ellipse fill="none" stroke="black" cx="172" cy="-991.5" rx="27" ry="18"/>
<text text-anchor="middle" x="172" y="-986.45" font-family="Times,serif" font-size="14.00">13</text>
</g>
<!-- 3&#45;&gt;13 -->
<g id="edge3" class="edge">
<title>3&#45;&gt;13</title>
<path fill="none" stroke="black" d="M172,-1061.91C172,-1050.26 172,-1034.55 172,-1021.02"/>
<polygon fill="black" stroke="black" points="175.5,-1021.36 172,-1011.36 168.5,-1021.36 175.5,-1021.36"/>
<text text-anchor="middle" x="176.12" y="-1030.7" font-family="Times,serif" font-size="14.00">E</text>
</g>
<!-- 14 -->
<g id="node16" class="node">
<title>14</title>
<ellipse fill="none" stroke="black" cx="172" cy="-903" rx="27" ry="18"/>
<text text-anchor="middle" x="172" y="-897.95" font-family="Times,serif" font-size="14.00">14</text>
</g>
<!-- 13&#45;&gt;14 -->
<g id="edge13" class="edge">
<title>13&#45;&gt;14</title>
<path fill="none" stroke="black" d="M172,-973.41C172,-961.76 172,-946.05 172,-932.52"/>
<polygon fill="black" stroke="black" points="175.5,-932.86 172,-922.86 168.5,-932.86 175.5,-932.86"/>
<text text-anchor="middle" x="175" y="-942.2" font-family="Times,serif" font-size="14.00">a</text>
</g>
<!-- 4 -->
<g id="node6" class="node">
<title>4</title>
<ellipse fill="none" stroke="black" cx="172" cy="-814.5" rx="27" ry="18"/>
<text text-anchor="middle" x="172" y="-809.45" font-family="Times,serif" font-size="14.00">4</text>
</g>
<!-- 6 -->
<g id="node7" class="node">
<title>6</title>
<ellipse fill="none" stroke="black" cx="172" cy="-726" rx="27" ry="18"/>
<text text-anchor="middle" x="172" y="-720.95" font-family="Times,serif" font-size="14.00">6</text>
</g>
<!-- 4&#45;&gt;6 -->
<g id="edge4" class="edge">
<title>4&#45;&gt;6</title>
<path fill="none" stroke="black" d="M172,-796.41C172,-784.76 172,-769.05 172,-755.52"/>
<polygon fill="black" stroke="black" points="175.5,-755.86 172,-745.86 168.5,-755.86 175.5,-755.86"/>
<text text-anchor="middle" x="176.12" y="-765.2" font-family="Times,serif" font-size="14.00">E</text>
</g>
<!-- 11 -->
<g id="node10" class="node">
<title>11</title>
<ellipse fill="none" stroke="black" cx="172" cy="-637.5" rx="27" ry="18"/>
<text text-anchor="middle" x="172" y="-632.45" font-family="Times,serif" font-size="14.00">11</text>
</g>
<!-- 6&#45;&gt;11 -->
<g id="edge6" class="edge">
<title>6&#45;&gt;11</title>
<path fill="none" stroke="black" d="M172,-707.91C172,-696.26 172,-680.55 172,-667.02"/>
<polygon fill="black" stroke="black" points="175.5,-667.36 172,-657.36 168.5,-667.36 175.5,-667.36"/>
<text text-anchor="middle" x="176.12" y="-676.7" font-family="Times,serif" font-size="14.00">E</text>
</g>
<!-- 5 -->
<g id="node8" class="node">
<title>5</title>
<ellipse fill="none" stroke="black" cx="172" cy="-106.5" rx="27" ry="18"/>
<text text-anchor="middle" x="172" y="-101.45" font-family="Times,serif" font-size="14.00">5</text>
</g>
<!-- 2 -->
<g id="node9" class="node">
<title>2</title>
<ellipse fill="none" stroke="black" cx="172" cy="-18" rx="27" ry="18"/>
<text text-anchor="middle" x="172" y="-12.95" font-family="Times,serif" font-size="14.00">2</text>
</g>
<!-- 5&#45;&gt;2 -->
<g id="edge5" class="edge">
<title>5&#45;&gt;2</title>
<path fill="none" stroke="black" d="M172,-88.41C172,-76.76 172,-61.05 172,-47.52"/>
<polygon fill="black" stroke="black" points="175.5,-47.86 172,-37.86 168.5,-47.86 175.5,-47.86"/>
<text text-anchor="middle" x="176.12" y="-57.2" font-family="Times,serif" font-size="14.00">E</text>
</g>
<!-- 12 -->
<g id="node15" class="node">
<title>12</title>
<ellipse fill="none" stroke="black" cx="172" cy="-549" rx="27" ry="18"/>
<text text-anchor="middle" x="172" y="-543.95" font-family="Times,serif" font-size="14.00">12</text>
</g>
<!-- 11&#45;&gt;12 -->
<g id="edge11" class="edge">
<title>11&#45;&gt;12</title>
<path fill="none" stroke="black" d="M172,-619.41C172,-607.76 172,-592.05 172,-578.52"/>
<polygon fill="black" stroke="black" points="175.5,-578.86 172,-568.86 168.5,-578.86 175.5,-578.86"/>
<text text-anchor="middle" x="175.38" y="-588.2" font-family="Times,serif" font-size="14.00">b</text>
</g>
<!-- 7 -->
<g id="node11" class="node">
<title>7</title>
<ellipse fill="none" stroke="black" cx="172" cy="-460.5" rx="27" ry="18"/>
<text text-anchor="middle" x="172" y="-455.45" font-family="Times,serif" font-size="14.00">7</text>
</g>
<!-- 9 -->
<g id="node12" class="node">
<title>9</title>
<ellipse fill="none" stroke="black" cx="172" cy="-372" rx="27" ry="18"/>
<text text-anchor="middle" x="172" y="-366.95" font-family="Times,serif" font-size="14.00">9</text>
</g>
<!-- 7&#45;&gt;9 -->
<g id="edge7" class="edge">
<title>7&#45;&gt;9</title>
<path fill="none" stroke="black" d="M172,-442.41C172,-430.76 172,-415.05 172,-401.52"/>
<polygon fill="black" stroke="black" points="175.5,-401.86 172,-391.86 168.5,-401.86 175.5,-401.86"/>
<text text-anchor="middle" x="176.12" y="-411.2" font-family="Times,serif" font-size="14.00">E</text>
</g>
<!-- 10 -->
<g id="node14" class="node">
<title>10</title>
<ellipse fill="none" stroke="black" cx="172" cy="-283.5" rx="27" ry="18"/>
<text text-anchor="middle" x="172" y="-278.45" font-family="Times,serif" font-size="14.00">10</text>
</g>
<!-- 9&#45;&gt;10 -->
<g id="edge9" class="edge">
<title>9&#45;&gt;10</title>
<path fill="none" stroke="black" d="M172,-353.91C172,-342.26 172,-326.55 172,-313.02"/>
<polygon fill="black" stroke="black" points="175.5,-313.36 172,-303.36 168.5,-313.36 175.5,-313.36"/>
<text text-anchor="middle" x="175.38" y="-322.7" font-family="Times,serif" font-size="14.00">b</text>
</g>
<!-- 8 -->
<g id="node13" class="node">
<title>8</title>
<ellipse fill="none" stroke="black" cx="172" cy="-195" rx="27" ry="18"/>
<text text-anchor="middle" x="172" y="-189.95" font-family="Times,serif" font-size="14.00">8</text>
</g>
<!-- 8&#45;&gt;5 -->
<g id="edge8" class="edge">
<title>8&#45;&gt;5</title>
<path fill="none" stroke="black" d="M172,-176.91C172,-165.26 172,-149.55 172,-136.02"/>
<polygon fill="black" stroke="black" points="175.5,-136.36 172,-126.36 168.5,-136.36 175.5,-136.36"/>
<text text-anchor="middle" x="176.12" y="-145.7" font-family="Times,serif" font-size="14.00">E</text>
</g>
<!-- 10&#45;&gt;8 -->
<g id="edge10" class="edge">
<title>10&#45;&gt;8</title>
<path fill="none" stroke="black" d="M172,-265.41C172,-253.76 172,-238.05 172,-224.52"/>
<polygon fill="black" stroke="black" points="175.5,-224.86 172,-214.86 168.5,-224.86 175.5,-224.86"/>
<text text-anchor="middle" x="176.12" y="-234.2" font-family="Times,serif" font-size="14.00">E</text>
</g>
<!-- 12&#45;&gt;7 -->
<g id="edge12" class="edge">
<title>12&#45;&gt;7</title>
<path fill="none" stroke="black" d="M172,-530.91C172,-519.26 172,-503.55 172,-490.02"/>
<polygon fill="black" stroke="black" points="175.5,-490.36 172,-480.36 168.5,-490.36 175.5,-490.36"/>
<text text-anchor="middle" x="176.12" y="-499.7" font-family="Times,serif" font-size="14.00">E</text>
</g>
<!-- 14&#45;&gt;4 -->
<g id="edge14" class="edge">
<title>14&#45;&gt;4</title>
<path fill="none" stroke="black" d="M172,-884.91C172,-873.26 172,-857.55 172,-844.02"/>
<polygon fill="black" stroke="black" points="175.5,-844.36 172,-834.36 168.5,-844.36 175.5,-844.36"/>
<text text-anchor="middle" x="176.12" y="-853.7" font-family="Times,serif" font-size="14.00">E</text>
</g>
<!-- 19 -->
<g id="node19" class="node">
<title>19</title>
<ellipse fill="none" stroke="black" cx="99" cy="-1876.5" rx="27" ry="18"/>
<text text-anchor="middle" x="99" y="-1871.45" font-family="Times,serif" font-size="14.00">19</text>
</g>
<!-- 16&#45;&gt;19 -->
<g id="edge17" class="edge">
<title>16&#45;&gt;19</title>
<path fill="none" stroke="black" d="M136.35,-1947.73C129.77,-1935.36 120.59,-1918.1 112.98,-1903.78"/>
<polygon fill="black" stroke="black" points="116.27,-1902.51 108.48,-1895.33 110.09,-1905.8 116.27,-1902.51"/>
<text text-anchor="middle" x="130.12" y="-1915.7" font-family="Times,serif" font-size="14.00">E</text>
</g>
<!-- 18&#45;&gt;1 -->
<g id="edge20" class="edge">
<title>18&#45;&gt;1</title>
<path fill="none" stroke="black" d="M172,-1238.91C172,-1227.26 172,-1211.55 172,-1198.02"/>
<polygon fill="black" stroke="black" points="175.5,-1198.36 172,-1188.36 168.5,-1198.36 175.5,-1198.36"/>
<text text-anchor="middle" x="176.12" y="-1207.7" font-family="Times,serif" font-size="14.00">E</text>
</g>
<!-- 20 -->
<g id="node21" class="node">
<title>20</title>
<ellipse fill="none" stroke="black" cx="27" cy="-1788" rx="27" ry="18"/>
<text text-anchor="middle" x="27" y="-1782.95" font-family="Times,serif" font-size="14.00">20</text>
</g>
<!-- 19&#45;&gt;20 -->
<g id="edge21" class="edge">
<title>19&#45;&gt;20</title>
<path fill="none" stroke="black" d="M86.46,-1860.43C75.48,-1847.24 59.34,-1827.86 46.65,-1812.61"/>
<polygon fill="black" stroke="black" points="49.7,-1810.79 40.61,-1805.35 44.32,-1815.27 49.7,-1810.79"/>
<text text-anchor="middle" x="74.12" y="-1827.2" font-family="Times,serif" font-size="14.00">E</text>
</g>
<!-- 22 -->
<g id="node22" class="node">
<title>22</title>
<ellipse fill="none" stroke="black" cx="99" cy="-1788" rx="27" ry="18"/>
<text text-anchor="middle" x="99" y="-1782.95" font-family="Times,serif" font-size="14.00">22</text>
</g>
<!-- 19&#45;&gt;22 -->
<g id="edge22" class="edge">
<title>19&#45;&gt;22</title>
<path fill="none" stroke="black" d="M99,-1858.41C99,-1846.76 99,-1831.05 99,-1817.52"/>
<polygon fill="black" stroke="black" points="102.5,-1817.86 99,-1807.86 95.5,-1817.86 102.5,-1817.86"/>
<text text-anchor="middle" x="103.12" y="-1827.2" font-family="Times,serif" font-size="14.00">E</text>
</g>
<!-- 17 -->
<g id="node20" class="node">
<title>17</title>
<ellipse fill="none" stroke="black" cx="145" cy="-1345.5" rx="27" ry="18"/>
<text text-anchor="middle" x="145" y="-1340.45" font-family="Times,serif" font-size="14.00">17</text>
</g>
<!-- 17&#45;&gt;16 -->
<g id="edge18" class="edge">
<title>17&#45;&gt;16</title>
<path fill="none" stroke="black" d="M147.85,-1363.68C150.48,-1381.09 154,-1408.84 154,-1433 154,-1877.5 154,-1877.5 154,-1877.5 154,-1896.94 151.72,-1918.7 149.46,-1935.54"/>
<polygon fill="black" stroke="black" points="146.01,-1934.93 148.06,-1945.32 152.94,-1935.92 146.01,-1934.93"/>
<text text-anchor="middle" x="158.12" y="-1650.2" font-family="Times,serif" font-size="14.00">E</text>
</g>
<!-- 17&#45;&gt;18 -->
<g id="edge19" class="edge">
<title>17&#45;&gt;18</title>
<path fill="none" stroke="black" d="M150.33,-1327.41C154.03,-1315.56 159.04,-1299.52 163.31,-1285.84"/>
<polygon fill="black" stroke="black" points="166.59,-1287.09 166.23,-1276.5 159.91,-1285 166.59,-1287.09"/>
<text text-anchor="middle" x="164.12" y="-1296.2" font-family="Times,serif" font-size="14.00">E</text>
</g>
<!-- 27 -->
<g id="node23" class="node">
<title>27</title>
<ellipse fill="none" stroke="black" cx="27" cy="-1699.5" rx="27" ry="18"/>
<text text-anchor="middle" x="27" y="-1694.45" font-family="Times,serif" font-size="14.00">27</text>
</g>
<!-- 20&#45;&gt;27 -->
<g id="edge23" class="edge">
<title>20&#45;&gt;27</title>
<path fill="none" stroke="black" d="M27,-1769.91C27,-1758.26 27,-1742.55 27,-1729.02"/>
<polygon fill="black" stroke="black" points="30.5,-1729.36 27,-1719.36 23.5,-1729.36 30.5,-1729.36"/>
<text text-anchor="middle" x="31.12" y="-1738.7" font-family="Times,serif" font-size="14.00">E</text>
</g>
<!-- 25 -->
<g id="node26" class="node">
<title>25</title>
<ellipse fill="none" stroke="black" cx="99" cy="-1699.5" rx="27" ry="18"/>
<text text-anchor="middle" x="99" y="-1694.45" font-family="Times,serif" font-size="14.00">25</text>
</g>
<!-- 22&#45;&gt;25 -->
<g id="edge25" class="edge">
<title>22&#45;&gt;25</title>
<path fill="none" stroke="black" d="M99,-1769.91C99,-1758.26 99,-1742.55 99,-1729.02"/>
<polygon fill="black" stroke="black" points="102.5,-1729.36 99,-1719.36 95.5,-1729.36 102.5,-1729.36"/>
<text text-anchor="middle" x="103.12" y="-1738.7" font-family="Times,serif" font-size="14.00">E</text>
</g>
<!-- 28 -->
<g id="node29" class="node">
<title>28</title>
<ellipse fill="none" stroke="black" cx="27" cy="-1611" rx="27" ry="18"/>
<text text-anchor="middle" x="27" y="-1605.95" font-family="Times,serif" font-size="14.00">28</text>
</g>
<!-- 27&#45;&gt;28 -->
<g id="edge30" class="edge">
<title>27&#45;&gt;28</title>
<path fill="none" stroke="black" d="M27,-1681.41C27,-1669.76 27,-1654.05 27,-1640.52"/>
<polygon fill="black" stroke="black" points="30.5,-1640.86 27,-1630.86 23.5,-1640.86 30.5,-1640.86"/>
<text text-anchor="middle" x="30" y="-1650.2" font-family="Times,serif" font-size="14.00">a</text>
</g>
<!-- 21 -->
<g id="node24" class="node">
<title>21</title>
<ellipse fill="none" stroke="black" cx="27" cy="-1522.5" rx="27" ry="18"/>
<text text-anchor="middle" x="27" y="-1517.45" font-family="Times,serif" font-size="14.00">21</text>
</g>
<!-- 24 -->
<g id="node25" class="node">
<title>24</title>
<ellipse fill="none" stroke="black" cx="99" cy="-1434" rx="27" ry="18"/>
<text text-anchor="middle" x="99" y="-1428.95" font-family="Times,serif" font-size="14.00">24</text>
</g>
<!-- 21&#45;&gt;24 -->
<g id="edge24" class="edge">
<title>21&#45;&gt;24</title>
<path fill="none" stroke="black" d="M39.54,-1506.43C50.52,-1493.24 66.66,-1473.86 79.35,-1458.61"/>
<polygon fill="black" stroke="black" points="81.68,-1461.27 85.39,-1451.35 76.3,-1456.79 81.68,-1461.27"/>
<text text-anchor="middle" x="74.12" y="-1473.2" font-family="Times,serif" font-size="14.00">E</text>
</g>
<!-- 24&#45;&gt;17 -->
<g id="edge27" class="edge">
<title>24&#45;&gt;17</title>
<path fill="none" stroke="black" d="M107.65,-1416.73C114.23,-1404.36 123.41,-1387.1 131.02,-1372.78"/>
<polygon fill="black" stroke="black" points="133.91,-1374.8 135.52,-1364.33 127.73,-1371.51 133.91,-1374.8"/>
<text text-anchor="middle" x="130.12" y="-1384.7" font-family="Times,serif" font-size="14.00">E</text>
</g>
<!-- 26 -->
<g id="node28" class="node">
<title>26</title>
<ellipse fill="none" stroke="black" cx="99" cy="-1611" rx="27" ry="18"/>
<text text-anchor="middle" x="99" y="-1605.95" font-family="Times,serif" font-size="14.00">26</text>
</g>
<!-- 25&#45;&gt;26 -->
<g id="edge28" class="edge">
<title>25&#45;&gt;26</title>
<path fill="none" stroke="black" d="M99,-1681.41C99,-1669.76 99,-1654.05 99,-1640.52"/>
<polygon fill="black" stroke="black" points="102.5,-1640.86 99,-1630.86 95.5,-1640.86 102.5,-1640.86"/>
<text text-anchor="middle" x="102.38" y="-1650.2" font-family="Times,serif" font-size="14.00">b</text>
</g>
<!-- 23 -->
<g id="node27" class="node">
<title>23</title>
<ellipse fill="none" stroke="black" cx="99" cy="-1522.5" rx="27" ry="18"/>
<text text-anchor="middle" x="99" y="-1517.45" font-family="Times,serif" font-size="14.00">23</text>
</g>
<!-- 23&#45;&gt;24 -->
<g id="edge26" class="edge">
<title>23&#45;&gt;24</title>
<path fill="none" stroke="black" d="M99,-1504.41C99,-1492.76 99,-1477.05 99,-1463.52"/>
<polygon fill="black" stroke="black" points="102.5,-1463.86 99,-1453.86 95.5,-1463.86 102.5,-1463.86"/>
<text text-anchor="middle" x="103.12" y="-1473.2" font-family="Times,serif" font-size="14.00">E</text>
</g>
<!-- 26&#45;&gt;23 -->
<g id="edge29" class="edge">
<title>26&#45;&gt;23</title>
<path fill="none" stroke="black" d="M99,-1592.91C99,-1581.26 99,-1565.55 99,-1552.02"/>
<polygon fill="black" stroke="black" points="102.5,-1552.36 99,-1542.36 95.5,-1552.36 102.5,-1552.36"/>
<text text-anchor="middle" x="103.12" y="-1561.7" font-family="Times,serif" font-size="14.00">E</text>
</g>
<!-- 28&#45;&gt;21 -->
<g id="edge31" class="edge">
<title>28&#45;&gt;21</title>
<path fill="none" stroke="black" d="M27,-1592.91C27,-1581.26 27,-1565.55 27,-1552.02"/>
<polygon fill="black" stroke="black" points="30.5,-1552.36 27,-1542.36 23.5,-1552.36 30.5,-1552.36"/>
<text text-anchor="middle" x="31.12" y="-1561.7" font-family="Times,serif" font-size="14.00">E</text>
</g>
</g>
</svg>
