<?xml version="1.0" encoding="UTF-8" standalone="no"?>
<!DOCTYPE svg PUBLIC "-//W3C//DTD SVG 1.1//EN"
 "http://www.w3.org/Graphics/SVG/1.1/DTD/svg11.dtd">
<!-- Generated by graphviz version 10.0.1 (20240210.2158)
 -->
<!-- Title: G Pages: 1 -->
<svg width="159pt" height="398pt"
 viewBox="0.00 0.00 159.35 398.00" xmlns="http://www.w3.org/2000/svg" xmlns:xlink="http://www.w3.org/1999/xlink">
<g id="graph0" class="graph" transform="scale(1 1) rotate(0) translate(4 394)">
<title>G</title>
<polygon fill="white" stroke="none" points="-4,4 -4,-394 155.35,-394 155.35,4 -4,4"/>
<!-- 0 -->
<g id="node1" class="node">
<title>0</title>
<ellipse fill="none" stroke="black" cx="104.6" cy="-372" rx="27" ry="18"/>
<text text-anchor="middle" x="104.6" y="-366.95" font-family="Times,serif" font-size="14.00">0</text>
</g>
<!-- 1 -->
<g id="node2" class="node">
<title>1</title>
<ellipse fill="none" stroke="black" cx="65.6" cy="-283.5" rx="27" ry="18"/>
<text text-anchor="middle" x="65.6" y="-278.45" font-family="Times,serif" font-size="14.00">1</text>
</g>
<!-- 0&#45;&gt;1 -->
<g id="edge1" class="edge">
<title>0&#45;&gt;1</title>
<path fill="none" stroke="black" d="M97.08,-354.32C91.58,-342.12 83.99,-325.3 77.65,-311.23"/>
<polygon fill="black" stroke="black" points="81.02,-310.18 73.72,-302.51 74.64,-313.06 81.02,-310.18"/>
<text text-anchor="middle" x="90.6" y="-322.7" font-family="Times,serif" font-size="14.00">a</text>
</g>
<!-- 2 -->
<g id="node3" class="node">
<title>2</title>
<ellipse fill="none" stroke="black" cx="74.6" cy="-18" rx="27" ry="18"/>
<text text-anchor="middle" x="74.6" y="-12.95" font-family="Times,serif" font-size="14.00">2</text>
</g>
<!-- 0&#45;&gt;2 -->
<g id="edge2" class="edge">
<title>0&#45;&gt;2</title>
<path fill="none" stroke="black" d="M116.6,-355.72C128.38,-339.16 144.6,-311.47 144.6,-284.5 144.6,-284.5 144.6,-284.5 144.6,-105.5 144.6,-77.48 122.13,-53.45 102.65,-37.88"/>
<polygon fill="black" stroke="black" points="105.02,-35.28 94.93,-32.04 100.8,-40.86 105.02,-35.28"/>
<text text-anchor="middle" x="147.97" y="-189.95" font-family="Times,serif" font-size="14.00">b</text>
</g>
<!-- 1&#45;&gt;1 -->
<g id="edge3" class="edge">
<title>1&#45;&gt;1</title>
<path fill="none" stroke="black" d="M90.13,-291.67C101.11,-292.45 110.6,-289.72 110.6,-283.5 110.6,-279.61 106.89,-277.09 101.43,-275.93"/>
<polygon fill="black" stroke="black" points="101.81,-272.45 91.64,-275.41 101.44,-279.44 101.81,-272.45"/>
<text text-anchor="middle" x="113.6" y="-278.45" font-family="Times,serif" font-size="14.00">a</text>
</g>
<!-- 3 -->
<g id="node4" class="node">
<title>3</title>
<ellipse fill="none" stroke="black" cx="39.6" cy="-195" rx="27" ry="18"/>
<text text-anchor="middle" x="39.6" y="-189.95" font-family="Times,serif" font-size="14.00">3</text>
</g>
<!-- 1&#45;&gt;3 -->
<g id="edge4" class="edge">
<title>1&#45;&gt;3</title>
<path fill="none" stroke="black" d="M60.46,-265.41C56.9,-253.56 52.08,-237.52 47.97,-223.84"/>
<polygon fill="black" stroke="black" points="51.39,-223.07 45.16,-214.5 44.69,-225.09 51.39,-223.07"/>
<text text-anchor="middle" x="58.97" y="-234.2" font-family="Times,serif" font-size="14.00">b</text>
</g>
<!-- 2&#45;&gt;1 -->
<g id="edge5" class="edge">
<title>2&#45;&gt;1</title>
<path fill="none" stroke="black" d="M64.47,-34.77C47.51,-62.29 14.18,-121.46 3.6,-177 0.6,-192.72 -2.1,-198.05 3.6,-213 10.87,-232.09 26.07,-249.26 39.59,-261.76"/>
<polygon fill="black" stroke="black" points="37.18,-264.3 47,-268.27 41.8,-259.04 37.18,-264.3"/>
<text text-anchor="middle" x="15.6" y="-145.7" font-family="Times,serif" font-size="14.00">a</text>
</g>
<!-- 2&#45;&gt;2 -->
<g id="edge6" class="edge">
<title>2&#45;&gt;2</title>
<path fill="none" stroke="black" d="M99.13,-26.17C110.11,-26.95 119.6,-24.22 119.6,-18 119.6,-14.11 115.89,-11.59 110.43,-10.43"/>
<polygon fill="black" stroke="black" points="110.81,-6.95 100.64,-9.91 110.44,-13.94 110.81,-6.95"/>
<text text-anchor="middle" x="122.97" y="-12.95" font-family="Times,serif" font-size="14.00">b</text>
</g>
<!-- 3&#45;&gt;1 -->
<g id="edge7" class="edge">
<title>3&#45;&gt;1</title>
<path fill="none" stroke="black" d="M37.92,-213.12C37.48,-223.35 37.94,-236.46 41.6,-247.5 42.78,-251.07 44.44,-254.6 46.35,-257.98"/>
<polygon fill="black" stroke="black" points="43.33,-259.76 51.73,-266.22 49.2,-255.93 43.33,-259.76"/>
<text text-anchor="middle" x="44.6" y="-234.2" font-family="Times,serif" font-size="14.00">a</text>
</g>
<!-- 4 -->
<g id="node5" class="node">
<title>4</title>
<ellipse fill="none" stroke="black" cx="74.6" cy="-106.5" rx="27" ry="18"/>
<text text-anchor="middle" x="74.6" y="-101.45" font-family="Times,serif" font-size="14.00">4</text>
</g>
<!-- 3&#45;&gt;4 -->
<g id="edge8" class="edge">
<title>3&#45;&gt;4</title>
<path fill="none" stroke="black" d="M46.35,-177.32C51.24,-165.24 57.96,-148.63 63.62,-134.64"/>
<polygon fill="black" stroke="black" points="66.8,-136.11 67.3,-125.53 60.31,-133.49 66.8,-136.11"/>
<text text-anchor="middle" x="63.97" y="-145.7" font-family="Times,serif" font-size="14.00">b</text>
</g>
<!-- 4&#45;&gt;1 -->
<g id="edge9" class="edge">
<title>4&#45;&gt;1</title>
<path fill="none" stroke="black" d="M75.61,-124.7C76.65,-145.61 77.82,-181.94 75.6,-213 74.63,-226.55 72.61,-241.46 70.64,-253.99"/>
<polygon fill="black" stroke="black" points="67.22,-253.22 69.04,-263.66 74.12,-254.36 67.22,-253.22"/>
<text text-anchor="middle" x="80.6" y="-189.95" font-family="Times,serif" font-size="14.00">a</text>
</g>
<!-- 4&#45;&gt;2 -->
<g id="edge10" class="edge">
<title>4&#45;&gt;2</title>
<path fill="none" stroke="black" d="M74.6,-88.41C74.6,-76.76 74.6,-61.05 74.6,-47.52"/>
<polygon fill="black" stroke="black" points="78.1,-47.86 74.6,-37.86 71.1,-47.86 78.1,-47.86"/>
<text text-anchor="middle" x="77.97" y="-57.2" font-family="Times,serif" font-size="14.00">b</text>
</g>
</g>
</svg>
