<?xml version="1.0" encoding="UTF-8" standalone="no"?>
<!DOCTYPE svg PUBLIC "-//W3C//DTD SVG 1.1//EN"
 "http://www.w3.org/Graphics/SVG/1.1/DTD/svg11.dtd">
<!-- Generated by graphviz version 10.0.1 (20240210.2158)
 -->
<!-- Title: G Pages: 1 -->
<svg width="126pt" height="310pt"
 viewBox="0.00 0.00 125.97 309.50" xmlns="http://www.w3.org/2000/svg" xmlns:xlink="http://www.w3.org/1999/xlink">
<g id="graph0" class="graph" transform="scale(1 1) rotate(0) translate(4 305.5)">
<title>G</title>
<polygon fill="white" stroke="none" points="-4,4 -4,-305.5 121.97,-305.5 121.97,4 -4,4"/>
<!-- 0 -->
<g id="node1" class="node">
<title>0</title>
<ellipse fill="none" stroke="black" cx="45.22" cy="-283.5" rx="27" ry="18"/>
<text text-anchor="middle" x="45.22" y="-278.45" font-family="Times,serif" font-size="14.00">0</text>
</g>
<!-- 2 -->
<g id="node2" class="node">
<title>2</title>
<ellipse fill="none" stroke="black" cx="45.22" cy="-106.5" rx="27" ry="18"/>
<text text-anchor="middle" x="45.22" y="-101.45" font-family="Times,serif" font-size="14.00">2</text>
</g>
<!-- 0&#45;&gt;2 -->
<g id="edge1" class="edge">
<title>0&#45;&gt;2</title>
<path fill="none" stroke="black" d="M32.5,-267.1C22.34,-253.73 8.9,-233.37 3.22,-213 -1.07,-197.59 -1.07,-192.41 3.22,-177 7.75,-160.77 17.2,-144.54 26,-131.85"/>
<polygon fill="black" stroke="black" points="28.57,-134.27 31.61,-124.13 22.9,-130.16 28.57,-134.27"/>
<text text-anchor="middle" x="6.22" y="-189.95" font-family="Times,serif" font-size="14.00">a</text>
</g>
<!-- 3 -->
<g id="node3" class="node">
<title>3</title>
<ellipse fill="none" stroke="black" cx="45.22" cy="-195" rx="27" ry="18"/>
<text text-anchor="middle" x="45.22" y="-189.95" font-family="Times,serif" font-size="14.00">3</text>
</g>
<!-- 0&#45;&gt;3 -->
<g id="edge2" class="edge">
<title>0&#45;&gt;3</title>
<path fill="none" stroke="black" d="M45.22,-265.41C45.22,-253.76 45.22,-238.05 45.22,-224.52"/>
<polygon fill="black" stroke="black" points="48.72,-224.86 45.22,-214.86 41.72,-224.86 48.72,-224.86"/>
<text text-anchor="middle" x="48.6" y="-234.2" font-family="Times,serif" font-size="14.00">b</text>
</g>
<!-- 2&#45;&gt;2 -->
<g id="edge5" class="edge">
<title>2&#45;&gt;2</title>
<path fill="none" stroke="black" d="M69.75,-114.67C80.73,-115.45 90.22,-112.72 90.22,-106.5 90.22,-102.61 86.51,-100.09 81.05,-98.93"/>
<polygon fill="black" stroke="black" points="81.44,-95.45 71.27,-98.41 81.07,-102.44 81.44,-95.45"/>
<text text-anchor="middle" x="93.22" y="-101.45" font-family="Times,serif" font-size="14.00">a</text>
</g>
<!-- 1 -->
<g id="node4" class="node">
<title>1</title>
<ellipse fill="none" stroke="black" cx="75.22" cy="-18" rx="27" ry="18"/>
<text text-anchor="middle" x="75.22" y="-12.95" font-family="Times,serif" font-size="14.00">1</text>
</g>
<!-- 2&#45;&gt;1 -->
<g id="edge6" class="edge">
<title>2&#45;&gt;1</title>
<path fill="none" stroke="black" d="M43.84,-88.28C43.62,-78.02 44.39,-64.91 48.47,-54 49.95,-50.04 52.04,-46.16 54.4,-42.51"/>
<polygon fill="black" stroke="black" points="57.04,-44.82 60.18,-34.7 51.42,-40.66 57.04,-44.82"/>
<text text-anchor="middle" x="51.6" y="-57.2" font-family="Times,serif" font-size="14.00">b</text>
</g>
<!-- 3&#45;&gt;2 -->
<g id="edge7" class="edge">
<title>3&#45;&gt;2</title>
<path fill="none" stroke="black" d="M45.22,-176.91C45.22,-165.26 45.22,-149.55 45.22,-136.02"/>
<polygon fill="black" stroke="black" points="48.72,-136.36 45.22,-126.36 41.72,-136.36 48.72,-136.36"/>
<text text-anchor="middle" x="48.22" y="-145.7" font-family="Times,serif" font-size="14.00">a</text>
</g>
<!-- 3&#45;&gt;3 -->
<g id="edge8" class="edge">
<title>3&#45;&gt;3</title>
<path fill="none" stroke="black" d="M69.75,-203.17C80.73,-203.95 90.22,-201.22 90.22,-195 90.22,-191.11 86.51,-188.59 81.05,-187.43"/>
<polygon fill="black" stroke="black" points="81.44,-183.95 71.27,-186.91 81.07,-190.94 81.44,-183.95"/>
<text text-anchor="middle" x="93.6" y="-189.95" font-family="Times,serif" font-size="14.00">b</text>
</g>
<!-- 1&#45;&gt;0 -->
<g id="edge4" class="edge">
<title>1&#45;&gt;0</title>
<path fill="none" stroke="black" d="M84.43,-35.24C91.66,-48.94 101.15,-69.35 105.22,-88.5 115.64,-137.53 111.08,-200.11 106.22,-213 99.07,-231.98 84.13,-249.15 70.82,-261.68"/>
<polygon fill="black" stroke="black" points="68.65,-258.92 63.53,-268.2 73.32,-264.14 68.65,-258.92"/>
<text text-anchor="middle" x="114.6" y="-145.7" font-family="Times,serif" font-size="14.00">b</text>
</g>
<!-- 1&#45;&gt;2 -->
<g id="edge3" class="edge">
<title>1&#45;&gt;2</title>
<path fill="none" stroke="black" d="M69.35,-35.92C65.21,-47.87 59.56,-64.15 54.77,-77.95"/>
<polygon fill="black" stroke="black" points="51.47,-76.8 51.5,-87.39 58.09,-79.09 51.47,-76.8"/>
<text text-anchor="middle" x="65.22" y="-57.2" font-family="Times,serif" font-size="14.00">a</text>
</g>
</g>
</svg>
